<?xml version="1.0" encoding="utf-8"?>
<!-- Generator: Adobe Illustrator 18.1.1, SVG Export Plug-In . SVG Version: 6.00 Build 0)  -->
<svg version="1.1" id="Layer_1" xmlns="http://www.w3.org/2000/svg" xmlns:xlink="http://www.w3.org/1999/xlink" x="0px" y="0px"
	 viewBox="0 0 500 131.1" enable-background="new 0 0 500 131.1" xml:space="preserve">
<g>
	<path fill="#A41737" d="M102.2,58.2h-4.4c-4.2,0-6.6,3.3-7.1,6.4c-2.3,14.5-6.5,28.5-12.3,40.7c-7-13.4-11.3-29.5-14.7-43.8
		c0,0,0-0.1,0-0.2c0-0.2-0.1-0.4-0.1-0.5c-0.3-0.6-0.9-1-1.5-1.1h-2.5H57c-0.7,0-1.3,0.5-1.5,1.1c0,0.2-0.2,0.7-0.2,0.7
		c-3.4,14.3-7.7,30.4-14.7,43.8c-5.8-12.2-10-26.2-12.3-40.7c-0.5-3.1-2.9-6.4-7.1-6.4h-4.4c-0.9,0.1-1.5,0.8-1.6,1.7
		c2.8,20.2,10,41.3,19.8,58.1c1.3,2.2,3.3,3.4,5.7,3.5c1.8,0,3.5-1,4.4-2.5c5.3-8.4,11.4-23.9,14.3-35.8c3,11.8,9.1,27.3,14.3,35.8
		c0.9,1.4,2.6,2.4,4.4,2.5c2.4,0,4.4-1.2,5.7-3.5c9.8-16.8,16.9-38,19.8-58.1C103.7,59,103.1,58.2,102.2,58.2"/>
</g>
<g>
	<defs>
		<rect id="SVGID_1_" x="15.3" y="10.2" width="470.7" height="111.4"/>
	</defs>
	<clipPath id="SVGID_2_">
		<use xlink:href="#SVGID_1_"  overflow="visible"/>
	</clipPath>
	<path clip-path="url(#SVGID_2_)" fill="#A41737" d="M422.8,30.3c10.1,1.5,18.4-5.6,25.5-11.3c-1.7,8,1.9,15.3,3.9,22.8
		c0.3,1.6,0.1,3.1,0.3,4.7c-9.1-1.3-18-4.2-25.2-11.5C425.5,33.3,424.1,32.1,422.8,30.3"/>
	<path clip-path="url(#SVGID_2_)" fill="#A41737" d="M448.3,19c10.5-7.8,25-11.4,37.8-6.9c-5.8,4.3-7.9,11.8-8.5,18.9
		C469.2,24.2,458.2,22.1,448.3,19"/>
</g>
<g>
	<path fill="#A41737" d="M477.5,31c0,0-8.9,0.5-13.2,4.2c-4.3,3.6-5,5.1-6.5,6.7c-1.2,1.2-1,1.3-5.6,4.7c0,0,7.9,0.5,12.8,5.5
		c4.9,5,7.3,10.3,7.3,10.3s3.6-8.2,4.3-15.5c0.7-7.4,0.7-8.8,0.7-11.5C477.5,32.6,477.5,31,477.5,31"/>
	<path fill="#465661" d="M326.2,58.5C309,58.5,298,70.9,298,91.1c0,18.1,12.1,30.5,28.2,30.5c16.5,0,27.3-12.3,27.3-32.8
		C353.5,70.7,342.4,58.5,326.2,58.5 M327.3,111.8c-12,0-18.8-8.9-18.8-22.9c0-12.6,6.5-20.6,16.3-20.6c12,0,18.3,7.9,18.3,22.9
		C343.1,103.1,337.5,111.8,327.3,111.8"/>
	<path fill="#465661" d="M191.3,85.4c-12.6-2.7-14.9-4.4-14.9-8.5c0-5.1,4.1-8.7,14.5-8.7c5.6,0,10.9,1.9,14.1,4.2v0
		c0.3,0.2,0.7,0.4,1.1,0.4c0.9,0,1.7-0.8,1.7-1.7h0c0-7.4-8.8-12.7-17.8-12.7c-15.1,0-24.1,9.2-24.1,19.1c0,9.1,5.4,13,16.7,15.4
		c13.9,3,16,5.1,16,10.1c0,6-4,8.9-13,8.9c-6.4,0-12.1-2-15.9-4.8c0,0-0.1-0.1-0.2-0.1c-0.3-0.2-0.6-0.2-0.9-0.2
		c-0.9,0-1.6,0.7-1.7,1.6c0,7.3,8.2,13.3,18.4,13.3c13.9,0,23.8-6.8,23.8-19.6C209.2,93.6,203.3,88,191.3,85.4"/>
	<path fill="#465661" d="M158.4,79.6c0-12.2-11.2-21.2-23-21.2c-16.2,0-28.5,13.1-28.5,32.8c0,17.5,11.8,30.4,28.6,30.4
		c13.7,0,20.5-6.3,20.5-12.6h0c0-0.9-0.8-1.7-1.7-1.7c-0.4,0-0.7,0.1-1,0.3c-3.5,2.5-8.7,4.5-16.3,4.5c-11.4,0-18.4-7.2-19.5-17.3
		h15C153.4,94.7,158.4,90.3,158.4,79.6 M117.5,86.5l0.1-2.5c0.3-7.9,6.7-16.3,16.7-16.3c9.6,0,14.1,5.8,14.1,12.4
		c0,4.6-2.5,5.9-17.2,6.1L117.5,86.5z"/>
	<path fill="#465661" d="M412.6,79.6c0-12.2-11.2-21.2-23-21.2c-16.2,0-28.5,13.1-28.5,32.8c0,17.5,11.8,30.4,28.6,30.4
		c13.7,0,20.5-6.3,20.5-12.6h0c0-0.9-0.8-1.7-1.7-1.7c-0.4,0-0.7,0.1-1,0.3c-3.5,2.5-8.7,4.5-16.3,4.5c-11.4,0-18.4-7.2-19.5-17.3
		h15C407.6,94.7,412.6,90.3,412.6,79.6 M371.6,86.5l0.1-2.5c0.3-7.9,6.7-16.3,16.7-16.3c9.6,0,14.1,5.8,14.1,12.4
		c0,4.6-2.5,5.9-17.2,6.1L371.6,86.5z"/>
	<path fill="#465661" d="M452.3,71.4c-0.7-0.3-1.3-0.7-1.8-1c-2.2-0.9-4.5-1.3-6.9-1.2c-7.8,0.4-11.2,6.5-11.2,17v33.2
		c0,0.6-0.5,1-1,1H428c-3.8,0-5.9-3-5.9-7v-28c0-16.9,8.2-25.9,20.1-25.9c2.6,0,5.2,0.5,7.5,1.7c2.5,1.3,4.3,3.6,5.7,6.1
		c0.6,1,1.4,3.2,0.4,4.2C454.7,72.4,453.5,72,452.3,71.4"/>
	<path fill="#465661" d="M251.5,63.1c0,3.8-2.5,6.3-8,6.3h-12.9v30.2c0,8.7,3.4,12.3,10,12.3c2.4,0,5,0.1,7.3-0.8
		c1.5-0.6,2.9-0.6,3.1,1.3c0.1,1.4-0.3,2.9-0.7,4.3c-1.3,4.2-6.9,5.1-10.6,5.1c-13.5,0-19.5-7.1-19.5-21.1V60.9
		c0-3.5,0.9-6.9,2.6-9.4c1.5-2.2,4.9-4.3,6.4-4.3h0.2c0.6,0,1,0.5,1,1v11.5h20.1l0,0c0.4,0,0.8,0.4,0.8,0.8L251.5,63.1z"/>
	<path fill="#465661" d="M292.4,63.1c0,3.8-2.5,6.3-8,6.3h-12.9v30.2c0,8.7,3.4,12.3,10,12.3c2.4,0,5,0.1,7.3-0.8
		c1.5-0.6,2.9-0.6,3.1,1.3c0.1,1.4-0.3,2.9-0.7,4.3c-1.3,4.2-6.9,5.1-10.6,5.1c-13.5,0-19.5-7.1-19.5-21.1V60.9
		c0-3.5,0.9-6.9,2.6-9.4c1.5-2.2,4.9-4.3,6.4-4.3h0.2c0.6,0,1,0.5,1,1v11.5h20.1l0,0c0.4,0,0.8,0.4,0.8,0.8L292.4,63.1z"/>
</g>
</svg>
